<svg version="1.1" width="600" height="151" xmlns="http://www.w3.org/2000/svg" >
<defs><marker id="arrowhead" markerWidth="10" markerHeight="7" refX="0" refY="3.5" orient="auto"><polygon points="0 0, 10 3.5, 0 7" /></marker></defs>
<path id="bottomxline" d="M 10 150 h 580" stroke="#FFFFFF" stroke-width="1" fill="none" />
<g transform="translate(250, 20)">
<text x="5" y="-5" style="font-size:13px;font-family:'Microsoft Yahei'">消息块</text>
<rect x="0" y="0" width="50" height="31" style="fill:none;stroke:#0000FF;stroke-width:1" />
<text x="15" y="20" style="font-size:13px;font-family:'Arial'">512</text>
</g>
<g transform="translate(150, 20)">
<text x="5" y="-5" style="font-size:13px;font-family:'Microsoft Yahei'">消息块</text>
<rect x="0" y="0" width="50" height="31" style="fill:none;stroke:#0000FF;stroke-width:1" />
<text x="15" y="20" style="font-size:13px;font-family:'Arial'">512</text>
</g>

<g transform="translate(400, 20)">
<text x="5" y="-5" style="font-size:13px;font-family:'Microsoft Yahei'">消息块</text>
<rect x="0" y="0" width="50" height="31" style="fill:none;stroke:#0000FF;stroke-width:1" />
<text x="15" y="20" style="font-size:13px;font-family:'Arial'">512</text>
</g>

<path d="M 275 53 V 95 h 13" stroke="#000000" stroke-width="1" fill="none" marker-end="url(#arrowhead)" />
<path d="M 175 53 V 95 h 13" stroke="#000000" stroke-width="1" fill="none" marker-end="url(#arrowhead)" />
<path d="M 425 53 V 95 h 13" stroke="#000000" stroke-width="1" fill="none" marker-end="url(#arrowhead)" />
<path d="M 152 105 H 188" stroke="#000000" stroke-width="1" fill="none" marker-end="url(#arrowhead)" />
<path d="M 233 105 H 288" stroke="#000000" stroke-width="1" fill="none" marker-end="url(#arrowhead)" />
<path d="M 333 105 H 438" stroke="#000000" stroke-width="1" fill="none" marker-end="url(#arrowhead)" />

<g transform="translate(200, 80)">
<path d="M 0 0 v 50 h 31 a 10 10 0 0 0 10 -10 v -30 a 10 10 0 0 0 -10 -10 h -31" stroke="#0000FF" stroke-width="1" fill="#DAE8FC"/>
<text x="15" y="30" style="font-size:13px;font-family:'Arial'">C</text>
</g>
<g transform="translate(300, 80)">
<path d="M 0 0 v 50 h 31 a 10 10 0 0 0 10 -10 v -30 a 10 10 0 0 0 -10 -10 h -31" stroke="#0000FF" stroke-width="1" fill="#DAE8FC"/>
<text x="15" y="30" style="font-size:13px;font-family:'Arial'">C</text>
</g>
<g transform="translate(450, 80)">
<path d="M 0 0 v 50 h 31 a 10 10 0 0 0 10 -10 v -30 a 10 10 0 0 0 -10 -10 h -31" stroke="#0000FF" stroke-width="1" fill="#DAE8FC"/>
<text x="15" y="30" style="font-size:13px;font-family:'Arial'">C</text>
</g>
<path d="M 493 105 h 15" stroke="#000000" stroke-width="1" fill="none" marker-end="url(#arrowhead)" />

<circle cx="125" cy="105" r="25" fill="none" stroke="#0000FF" stroke-width="1" />
<text x="115" y="110" style="font-size:13px;font-family:'Arial'">256</text>
<text x="120" y="75" style="font-size:13px;font-family:'Arial'">IV</text>

<circle cx="545" cy="105" r="25" fill="none" stroke="#0000FF" stroke-width="1" />
<text x="535" y="110" style="font-size:13px;font-family:'Arial'">256</text>
<text x="520" y="75" style="font-size:13px;font-family:'Microsoft Yahei'">最终结果</text>
</svg>
