<svg version="1.1" width="600" height="221" xmlns="http://www.w3.org/2000/svg" >
<defs><marker id="arrowhead" markerWidth="10" markerHeight="7" refX="0" refY="3.5" orient="auto"><polygon points="0 0, 10 3.5, 0 7" /></marker></defs>
<path id="bottomxline" d="M 10 220 h 580" stroke="#FFFFFF" stroke-width="1" fill="none" />
<rect x="20" y="60" width="560" height="20" style="fill:none;stroke:#0000FF;stroke-width:1" />
<path d="M 60 60 v 20" stroke="#0000FF" stroke-width="1" fill="none"/>
<path d="M 200 60 v 20" stroke="#0000FF" stroke-width="1" fill="none"/>
<path d="M 260 60 v 20" stroke="#0000FF" stroke-width="1" fill="none"/>

<path d="M 40 110 V 92" stroke="#000000" stroke-width="1" fill="none" marker-end="url(#arrowhead)" />
<path d="M 60 82 v 5 a 5 5 0 0 0 5 5 h 60 a 5 5 0 0 1 5 5 a 5 5 0 0 1 5 -5 h 60 a 5 5 0 0 0 5 -5 v -5" stroke="#000000" stroke-width="1" fill="none" />
<path d="M 130 100 V 108" stroke="#000000" stroke-width="1" fill="none" marker-end="url(#arrowhead)" />

<rect x="130" y="120" width="400" height="20" style="fill:none;stroke:#0000FF;stroke-width:1" />
<path d="M 170 120 v 20" stroke="#0000FF" stroke-width="1" fill="none"/>
<path d="M 490 120 v 20" stroke="#0000FF" stroke-width="1" fill="none"/>
<path d="M 450 120 v 20" stroke="#0000FF" stroke-width="1" fill="none"/>
<path d="M 410 120 v 20" stroke="#0000FF" stroke-width="1" fill="none"/>
<path d="M 290 120 v 20" stroke="#0000FF" stroke-width="1" fill="none"/>

<path d="M 150 165 V 152" stroke="#000000" stroke-width="1" fill="none" marker-end="url(#arrowhead)" />
<path d="M 230 165 V 152" stroke="#000000" stroke-width="1" fill="none" marker-end="url(#arrowhead)" />
<text x="200" y="185" style="font-size:13px;font-family:'Microsoft Yahei'">前一个块的哈希值</text>

<text x="35" y="75" style="font-size:13px;font-family:'Arial'">4</text>
<text x="120" y="75" style="font-size:13px;font-family:'Arial'">80</text>
<text x="220" y="75" style="font-size:13px;font-family:'Arial'">1 - 9</text>

<text x="145" y="135" style="font-size:13px;font-family:'Arial'">4</text>
<text x="425" y="135" style="font-size:13px;font-family:'Arial'">4</text>
<text x="465" y="135" style="font-size:13px;font-family:'Arial'">4</text>
<text x="505" y="135" style="font-size:13px;font-family:'Arial'">4</text>
<text x="340" y="135" style="font-size:13px;font-family:'Arial'">32</text>
<text x="220" y="135" style="font-size:13px;font-family:'Arial'">32</text>
</svg>
