<svg version="1.1" width="600" height="246" xmlns="http://www.w3.org/2000/svg" >
<defs><marker id="arrowhead" markerWidth="10" markerHeight="7" refX="0" refY="3.5" orient="auto"><polygon points="0 0, 10 3.5, 0 7" /></marker></defs>
<path id="bottomxline" d="M 10 245 h 580" stroke="#FFFFFF" stroke-width="1" fill="none" />
<g transform="translate(0, -35)">
<g transform="translate(50, 40)">
<rect x="0" y="0" width="100" height="80" style="fill:none;stroke:#0000FF;stroke-width:1" />
<path d="M 0 20 h 100" stroke="#0000FF" stroke-width="1" fill="none"/>
<path d="M 0 40 h 100" stroke="#0000FF" stroke-width="1" fill="none"/>
<text x="11" y="15" style="font-size:13px;font-family:'Microsoft Yahei'">前块的哈希值</text>
<text x="5" y="35" style="font-size:13px;font-family:'Microsoft Yahei'">根交易的哈希值</text>
</g>
<g transform="translate(250, 40)">
<rect x="0" y="0" width="100" height="80" style="fill:none;stroke:#0000FF;stroke-width:1" />
<path d="M 0 20 h 100" stroke="#0000FF" stroke-width="1" fill="none"/>
<path d="M 0 40 h 100" stroke="#0000FF" stroke-width="1" fill="none"/>
<text x="11" y="15" style="font-size:13px;font-family:'Microsoft Yahei'">前块的哈希值</text>
<text x="5" y="35" style="font-size:13px;font-family:'Microsoft Yahei'">根交易的哈希值</text>
</g>
<g transform="translate(450, 40)">
<rect x="0" y="0" width="100" height="80" style="fill:none;stroke:#0000FF;stroke-width:1" />
<path d="M 0 20 h 100" stroke="#0000FF" stroke-width="1" fill="none"/>
<path d="M 0 40 h 100" stroke="#0000FF" stroke-width="1" fill="none"/>
<text x="11" y="15" style="font-size:13px;font-family:'Microsoft Yahei'">前块的哈希值</text>
<text x="5" y="35" style="font-size:13px;font-family:'Microsoft Yahei'">根交易的哈希值</text>
</g>

<path d="M 448 50 H 362" stroke="#000000" stroke-width="1" fill="none" marker-end="url(#arrowhead)" />
<path d="M 248 50 H 162" stroke="#000000" stroke-width="1" fill="none" marker-end="url(#arrowhead)" />
<path d="M 48 50 H 20" stroke="#000000" stroke-width="1" fill="none" marker-end="url(#arrowhead)" />
<path d="M 590 50 H 562" stroke="#000000" stroke-width="1" fill="none" marker-end="url(#arrowhead)" />

<rect x="260" y="135" width="80" height="20" style="fill:none;stroke:#0000FF;stroke-width:1" />
<text x="275" y="149" style="font-size:13px;font-family:'Arial'">H( ) H( )</text>

<rect x="210" y="185" width="80" height="20" style="fill:none;stroke:#0000FF;stroke-width:1" />
<text x="225" y="199" style="font-size:13px;font-family:'Arial'">H( ) H( )</text>

<rect x="310" y="185" width="80" height="20" style="fill:none;stroke:#0000FF;stroke-width:1" />
<text x="325" y="199" style="font-size:13px;font-family:'Arial'">H( ) H( )</text>

<rect x="160" y="240" width="80" height="20" style="fill:none;stroke:#0000FF;stroke-width:1" />
<rect x="260" y="240" width="80" height="20" style="fill:none;stroke:#0000FF;stroke-width:1" />
</g>
</svg>
